<?xml version="1.0" encoding="UTF-8"?>
<svg id="Capa_2" data-name="Capa 2" xmlns="http://www.w3.org/2000/svg" viewBox="0 0 345.3 358.76">
  <defs>
    <style>
      .cls-1 {
        fill: #ed355d;
        stroke-width: 0px;
      }
    </style>
  </defs>
  <g id="Capa_1-2" data-name="Capa 1">
    <g>
      <g>
        <path class="cls-1" d="M341.17,115.85c-1.86,3.46-4.41,6.24-7.64,8.34-2.88,2.63-6.24,4.4-10.1,5.32-7.68,2.11-15.96.74-22.87-3-.07-.04-.15-.07-.22-.11-5.07-2.7-10.1-5.46-15.15-8.2-10.35-5.6-20.7-11.2-31.06-16.8-11.84-6.4-23.67-12.79-35.51-19.2-9.66-5.22-19.34-10.46-29-15.68-3.66-1.98-7.29-4.13-11.05-6.02,1.12.36,2.22.77,3.31,1.21-1.7-.71-3.41-1.44-5.11-2.15.59.04,1.16.1,1.75.17-.66-.08-1.31-.17-1.97-.27-.57-.24-1.15-.49-1.72-.73-.61.08-1.22.17-1.83.25-.61-.08-1.23-.17-1.86-.25h-.03c-.57.25-1.14.49-1.72.74-.81.1-1.63.21-2.44.32.74-.1,1.49-.18,2.23-.24-1.68.7-3.35,1.41-5.01,2.11,1.14-.47,2.3-.89,3.48-1.27-.07.04-.14.07-.21.11-4.64,2.47-9.27,4.99-13.91,7.47-10.19,5.49-20.39,10.96-30.58,16.45-11.97,6.44-23.94,12.88-35.9,19.31-9.96,5.35-19.9,10.7-29.86,16.06-4.16,2.23-8.32,4.47-12.48,6.7-7.26,3.91-14.93,4.8-22.87,3-7.57-1.73-13.66-7.32-17.75-13.66-2.16-3.41-3.34-7.08-3.52-11.03-.88-3.95-.71-7.89.53-11.84.92-3.85,2.7-7.22,5.32-10.1,2.08-3.23,4.86-5.78,8.32-7.64.31-.17.61-.34.92-.5,6.48-3.48,12.96-6.97,19.42-10.45,11.55-6.2,23.08-12.41,34.62-18.62,12.32-6.62,24.63-13.25,36.95-19.87,8.67-4.66,17.34-9.31,26-13.98,1.61-.87,3.18-1.72,4.79-2.57.99-.53,2-1.03,3.03-1.49,4.9-2.18,9.89-4.48,15.17-5.66,5.29-1.19,10.79-1.95,16.23-2.09,5.43-.14,10.95.74,16.27,1.66,2.97.5,5.91,1.33,8.71,2.44,3.94,1.56,7.93,3.14,11.69,5.15.43.22.87.46,1.31.7,2.56,1.4,5.12,2.78,7.69,4.16,9.86,5.33,19.73,10.68,29.61,16.02,3.42,1.84,6.83,3.7,10.25,5.54v-19.38c0-7.69,6.23-13.92,13.92-13.92h32.27c7.69,0,13.92,6.23,13.92,13.92v45.08c0,2.16-.5,4.23-1.38,6.06.22.13.46.25.68.38,4.57,2.47,9.13,4.94,13.71,7.42,6.86,3.7,11.3,10.52,13.64,17.73,2.47,7.64.64,15.99-3,22.87Z"/>
        <path class="cls-1" d="M181.87,61.71c-1.09-.45-2.19-.85-3.31-1.21h-.01c-1.23-.41-2.47-.75-3.73-1.06-1.22-.06-2.42-.06-3.63,0-1.2.27-2.39.6-3.55.96-1.17.38-2.33.8-3.48,1.27,1.66-.7,3.34-1.41,5.01-2.11-.74.06-1.49.14-2.23.24.81-.11,1.63-.22,2.44-.32.57-.25,1.15-.49,1.72-.74h.03c.63.08,1.24.17,1.86.25.61-.08,1.22-.17,1.83-.25.57.24,1.14.49,1.72.73.66.1,1.31.18,1.97.27-.59-.07-1.16-.13-1.75-.17,1.7.71,3.41,1.44,5.11,2.15Z"/>
      </g>
      <path class="cls-1" d="M172.65,258.28c-11.74,1.99-40.23-8.48-30.47-24.47,11.57-11.49,21.67,21.76,47.81.79,4.48-3.27,9.19-5.02,13.2-.44,9.35,14.33-19.44,25.07-30.54,24.12-.37.77.37-.77,0,0Z"/>
      <path class="cls-1" d="M149.58,194.51c-.18,8.53-6.47,14.38-15.29,14.22-8.27-.15-14.42-6.24-14.4-14.25.02-8.64,6.91-15.37,15.55-15.22,8.67.15,14.34,6.26,14.14,15.25Z"/>
      <path class="cls-1" d="M209.94,208.99c-8.4-.19-14.88-7.01-14.56-15.34.32-8.5,6.91-14.73,15.35-14.51,8.53.22,15.01,6.92,14.69,15.18-.32,8.23-7.31,14.85-15.48,14.66Z"/>
      <path class="cls-1" d="M301.95,208.17c0,15.89.69,32.01-1.38,47.62-7.32,55.09-47.96,94.01-103.97,101.28-28.11,3.65-55.71,1.82-81.88-9.72-45.97-20.27-69.12-56.43-71-106.1-.91-24.1-.35-48.27.15-72.4.35-16.96,10.91-26.95,26.63-26.47,15.29.47,24.77,10.85,24.85,27.52.1,21.87-.09,43.73.02,65.6.18,35.23,17.31,60.36,48.07,70.82,34.65,11.79,72.91,2.11,93-23.79,10.57-13.62,13.84-29.66,13.98-46.47.18-22.15.03-44.3.14-66.45.08-16.69,9.71-27.13,24.93-27.28,16.43-.16,26.31,10.06,26.44,27.5.09,12.78.02,25.56.02,38.34-.36,0,.36,0,0,0Z"/>
    </g>
  </g>
</svg>